<?xml version="1.0" encoding="UTF-8" standalone="no"?>
<svg
   xmlns:dc="http://purl.org/dc/elements/1.1/"
   xmlns:cc="http://creativecommons.org/ns#"
   xmlns:rdf="http://www.w3.org/1999/02/22-rdf-syntax-ns#"
   xmlns:svg="http://www.w3.org/2000/svg"
   xmlns="http://www.w3.org/2000/svg"
   xmlns:sodipodi="http://sodipodi.sourceforge.net/DTD/sodipodi-0.dtd"
   xmlns:inkscape="http://www.inkscape.org/namespaces/inkscape"
   version="1.1"
   width="200"
   height="200.395"
   viewBox="274.62 554.459 200 200.395"
   overflow="visible"
   enable-background="new 274.62 554.459 200 200.395"
   xml:space="preserve"
   id="svg2896"
   inkscape:version="0.48.0 r9654"
   sodipodi:docname="Open_Source_22.svg"
   inkscape:output_extension="org.inkscape.output.svg.inkscape"
   style="display:inline;overflow:visible"
   inkscape:export-filename="/home/naba/Pictures/starbucks/Open_Source_22.png"
   inkscape:export-xdpi="90"
   inkscape:export-ydpi="90"><metadata
   id="metadata2912"><rdf:RDF><cc:Work
       rdf:about=""><dc:format>image/svg+xml</dc:format><dc:type
         rdf:resource="http://purl.org/dc/dcmitype/StillImage" /><dc:title></dc:title></cc:Work></rdf:RDF></metadata><defs
   id="defs2910"><inkscape:perspective
     sodipodi:type="inkscape:persp3d"
     inkscape:vp_x="0 : 100.1975 : 1"
     inkscape:vp_y="0 : 1000 : 0"
     inkscape:vp_z="200 : 100.1975 : 1"
     inkscape:persp3d-origin="100 : 66.798335 : 1"
     id="perspective2914" /><inkscape:perspective
     id="perspective3034"
     inkscape:persp3d-origin="0.5 : 0.33333333 : 1"
     inkscape:vp_z="1 : 0.5 : 1"
     inkscape:vp_y="0 : 1000 : 0"
     inkscape:vp_x="0 : 0.5 : 1"
     sodipodi:type="inkscape:persp3d" /><inkscape:perspective
     id="perspective3065"
     inkscape:persp3d-origin="0.5 : 0.33333333 : 1"
     inkscape:vp_z="1 : 0.5 : 1"
     inkscape:vp_y="0 : 1000 : 0"
     inkscape:vp_x="0 : 0.5 : 1"
     sodipodi:type="inkscape:persp3d" /><inkscape:perspective
     id="perspective3088"
     inkscape:persp3d-origin="0.5 : 0.33333333 : 1"
     inkscape:vp_z="1 : 0.5 : 1"
     inkscape:vp_y="0 : 1000 : 0"
     inkscape:vp_x="0 : 0.5 : 1"
     sodipodi:type="inkscape:persp3d" /><inkscape:perspective
     id="perspective3120"
     inkscape:persp3d-origin="0.5 : 0.33333333 : 1"
     inkscape:vp_z="1 : 0.5 : 1"
     inkscape:vp_y="0 : 1000 : 0"
     inkscape:vp_x="0 : 0.5 : 1"
     sodipodi:type="inkscape:persp3d" /><inkscape:perspective
     id="perspective3144"
     inkscape:persp3d-origin="0.5 : 0.33333333 : 1"
     inkscape:vp_z="1 : 0.5 : 1"
     inkscape:vp_y="0 : 1000 : 0"
     inkscape:vp_x="0 : 0.5 : 1"
     sodipodi:type="inkscape:persp3d" /><marker
     orient="auto"
     markerHeight="3"
     markerWidth="4"
     markerUnits="strokeWidth"
     refY="5"
     refX="10"
     viewBox="0 0 10 10"
     id="ArrowStart"><path
       id="path3337"
       d="M 10,0 0,5 10,10 z" /></marker><marker
     orient="auto"
     markerHeight="3"
     markerWidth="4"
     markerUnits="strokeWidth"
     refY="5"
     refX="0"
     viewBox="0 0 10 10"
     id="ArrowEnd"><path
       id="path3334"
       d="M 0,0 10,5 0,10 z" /></marker><inkscape:perspective
     id="perspective3437"
     inkscape:persp3d-origin="155.48 : 122.638 : 1"
     inkscape:vp_z="310.95999 : 183.957 : 1"
     inkscape:vp_y="0 : 1000 : 0"
     inkscape:vp_x="0 : 183.957 : 1"
     sodipodi:type="inkscape:persp3d" /><inkscape:perspective
     id="perspective3501"
     inkscape:persp3d-origin="0.5 : 0.33333333 : 1"
     inkscape:vp_z="1 : 0.5 : 1"
     inkscape:vp_y="0 : 1000 : 0"
     inkscape:vp_x="0 : 0.5 : 1"
     sodipodi:type="inkscape:persp3d" /><inkscape:perspective
     id="perspective3792"
     inkscape:persp3d-origin="292.5 : 192.08333 : 1"
     inkscape:vp_z="585 : 288.125 : 1"
     inkscape:vp_y="0 : 1000 : 0"
     inkscape:vp_x="0 : 288.125 : 1"
     sodipodi:type="inkscape:persp3d" /><inkscape:perspective
     id="perspective3886"
     inkscape:persp3d-origin="292.5 : 192.08333 : 1"
     inkscape:vp_z="585 : 288.125 : 1"
     inkscape:vp_y="0 : 1000 : 0"
     inkscape:vp_x="0 : 288.125 : 1"
     sodipodi:type="inkscape:persp3d" /><inkscape:perspective
     id="perspective2920"
     inkscape:persp3d-origin="0.5 : 0.33333333 : 1"
     inkscape:vp_z="1 : 0.5 : 1"
     inkscape:vp_y="0 : 1000 : 0"
     inkscape:vp_x="0 : 0.5 : 1"
     sodipodi:type="inkscape:persp3d" /><inkscape:perspective
     id="perspective5146"
     inkscape:persp3d-origin="0.5 : 0.33333333 : 1"
     inkscape:vp_z="1 : 0.5 : 1"
     inkscape:vp_y="0 : 1000 : 0"
     inkscape:vp_x="0 : 0.5 : 1"
     sodipodi:type="inkscape:persp3d" /><inkscape:perspective
     id="perspective5999"
     inkscape:persp3d-origin="0.5 : 0.33333333 : 1"
     inkscape:vp_z="1 : 0.5 : 1"
     inkscape:vp_y="0 : 1000 : 0"
     inkscape:vp_x="0 : 0.5 : 1"
     sodipodi:type="inkscape:persp3d" /><path
     style="fill:none;stroke:none"
     d="M 38.496353,91.59357 C 43.745856,19.845032 154.42287,18.692547 160.54729,90.905945"
     id="path5173-8"
     transform="translate(274.62,554.459)"
     sodipodi:nodetypes="cc" /><inkscape:perspective
     id="perspective6121"
     inkscape:persp3d-origin="0.5 : 0.33333333 : 1"
     inkscape:vp_z="1 : 0.5 : 1"
     inkscape:vp_y="0 : 1000 : 0"
     inkscape:vp_x="0 : 0.5 : 1"
     sodipodi:type="inkscape:persp3d" /><inkscape:perspective
     id="perspective6135"
     inkscape:persp3d-origin="0.5 : 0.33333333 : 1"
     inkscape:vp_z="1 : 0.5 : 1"
     inkscape:vp_y="0 : 1000 : 0"
     inkscape:vp_x="0 : 0.5 : 1"
     sodipodi:type="inkscape:persp3d" /><inkscape:perspective
     id="perspective6163"
     inkscape:persp3d-origin="0.5 : 0.33333333 : 1"
     inkscape:vp_z="1 : 0.5 : 1"
     inkscape:vp_y="0 : 1000 : 0"
     inkscape:vp_x="0 : 0.5 : 1"
     sodipodi:type="inkscape:persp3d" /><inkscape:perspective
     id="perspective6287"
     inkscape:persp3d-origin="0.5 : 0.33333333 : 1"
     inkscape:vp_z="1 : 0.5 : 1"
     inkscape:vp_y="0 : 1000 : 0"
     inkscape:vp_x="0 : 0.5 : 1"
     sodipodi:type="inkscape:persp3d" /><inkscape:perspective
     id="perspective6401"
     inkscape:persp3d-origin="0.5 : 0.33333333 : 1"
     inkscape:vp_z="1 : 0.5 : 1"
     inkscape:vp_y="0 : 1000 : 0"
     inkscape:vp_x="0 : 0.5 : 1"
     sodipodi:type="inkscape:persp3d" /><inkscape:perspective
     id="perspective3098"
     inkscape:persp3d-origin="0.5 : 0.33333333 : 1"
     inkscape:vp_z="1 : 0.5 : 1"
     inkscape:vp_y="0 : 1000 : 0"
     inkscape:vp_x="0 : 0.5 : 1"
     sodipodi:type="inkscape:persp3d" /><inkscape:perspective
     id="perspective3397"
     inkscape:persp3d-origin="98 : 65.333333 : 1"
     inkscape:vp_z="196 : 98 : 1"
     inkscape:vp_y="0 : 1000 : 0"
     inkscape:vp_x="0 : 98 : 1"
     sodipodi:type="inkscape:persp3d" /><inkscape:perspective
     id="perspective3596"
     inkscape:persp3d-origin="0.5 : 0.33333333 : 1"
     inkscape:vp_z="1 : 0.5 : 1"
     inkscape:vp_y="0 : 1000 : 0"
     inkscape:vp_x="0 : 0.5 : 1"
     sodipodi:type="inkscape:persp3d" /><inkscape:perspective
     id="perspective3036"
     inkscape:persp3d-origin="0.5 : 0.33333333 : 1"
     inkscape:vp_z="1 : 0.5 : 1"
     inkscape:vp_y="0 : 1000 : 0"
     inkscape:vp_x="0 : 0.5 : 1"
     sodipodi:type="inkscape:persp3d" /><inkscape:perspective
     id="perspective3058"
     inkscape:persp3d-origin="0.5 : 0.33333333 : 1"
     inkscape:vp_z="1 : 0.5 : 1"
     inkscape:vp_y="0 : 1000 : 0"
     inkscape:vp_x="0 : 0.5 : 1"
     sodipodi:type="inkscape:persp3d" /><inkscape:perspective
     id="perspective3098-4"
     inkscape:persp3d-origin="0.5 : 0.33333333 : 1"
     inkscape:vp_z="1 : 0.5 : 1"
     inkscape:vp_y="0 : 1000 : 0"
     inkscape:vp_x="0 : 0.5 : 1"
     sodipodi:type="inkscape:persp3d" /><inkscape:perspective
     id="perspective3123"
     inkscape:persp3d-origin="0.5 : 0.33333333 : 1"
     inkscape:vp_z="1 : 0.5 : 1"
     inkscape:vp_y="0 : 1000 : 0"
     inkscape:vp_x="0 : 0.5 : 1"
     sodipodi:type="inkscape:persp3d" /><inkscape:perspective
     id="perspective3123-5"
     inkscape:persp3d-origin="0.5 : 0.33333333 : 1"
     inkscape:vp_z="1 : 0.5 : 1"
     inkscape:vp_y="0 : 1000 : 0"
     inkscape:vp_x="0 : 0.5 : 1"
     sodipodi:type="inkscape:persp3d" /><inkscape:perspective
     id="perspective3186"
     inkscape:persp3d-origin="0.5 : 0.33333333 : 1"
     inkscape:vp_z="1 : 0.5 : 1"
     inkscape:vp_y="0 : 1000 : 0"
     inkscape:vp_x="0 : 0.5 : 1"
     sodipodi:type="inkscape:persp3d" /><inkscape:perspective
     id="perspective3211"
     inkscape:persp3d-origin="0.5 : 0.33333333 : 1"
     inkscape:vp_z="1 : 0.5 : 1"
     inkscape:vp_y="0 : 1000 : 0"
     inkscape:vp_x="0 : 0.5 : 1"
     sodipodi:type="inkscape:persp3d" /><inkscape:perspective
     id="perspective3240"
     inkscape:persp3d-origin="0.5 : 0.33333333 : 1"
     inkscape:vp_z="1 : 0.5 : 1"
     inkscape:vp_y="0 : 1000 : 0"
     inkscape:vp_x="0 : 0.5 : 1"
     sodipodi:type="inkscape:persp3d" /><inkscape:perspective
     id="perspective3265"
     inkscape:persp3d-origin="0.5 : 0.33333333 : 1"
     inkscape:vp_z="1 : 0.5 : 1"
     inkscape:vp_y="0 : 1000 : 0"
     inkscape:vp_x="0 : 0.5 : 1"
     sodipodi:type="inkscape:persp3d" /><inkscape:perspective
     id="perspective3265-8"
     inkscape:persp3d-origin="0.5 : 0.33333333 : 1"
     inkscape:vp_z="1 : 0.5 : 1"
     inkscape:vp_y="0 : 1000 : 0"
     inkscape:vp_x="0 : 0.5 : 1"
     sodipodi:type="inkscape:persp3d" /><inkscape:perspective
     id="perspective3578"
     inkscape:persp3d-origin="0.5 : 0.33333333 : 1"
     inkscape:vp_z="1 : 0.5 : 1"
     inkscape:vp_y="0 : 1000 : 0"
     inkscape:vp_x="0 : 0.5 : 1"
     sodipodi:type="inkscape:persp3d" /><inkscape:perspective
     id="perspective3634"
     inkscape:persp3d-origin="0.5 : 0.33333333 : 1"
     inkscape:vp_z="1 : 0.5 : 1"
     inkscape:vp_y="0 : 1000 : 0"
     inkscape:vp_x="0 : 0.5 : 1"
     sodipodi:type="inkscape:persp3d" /><inkscape:perspective
     id="perspective3692"
     inkscape:persp3d-origin="0.5 : 0.33333333 : 1"
     inkscape:vp_z="1 : 0.5 : 1"
     inkscape:vp_y="0 : 1000 : 0"
     inkscape:vp_x="0 : 0.5 : 1"
     sodipodi:type="inkscape:persp3d" /><inkscape:perspective
     id="perspective3714"
     inkscape:persp3d-origin="0.5 : 0.33333333 : 1"
     inkscape:vp_z="1 : 0.5 : 1"
     inkscape:vp_y="0 : 1000 : 0"
     inkscape:vp_x="0 : 0.5 : 1"
     sodipodi:type="inkscape:persp3d" /><inkscape:perspective
     id="perspective3757"
     inkscape:persp3d-origin="0.5 : 0.33333333 : 1"
     inkscape:vp_z="1 : 0.5 : 1"
     inkscape:vp_y="0 : 1000 : 0"
     inkscape:vp_x="0 : 0.5 : 1"
     sodipodi:type="inkscape:persp3d" /><inkscape:perspective
     id="perspective4583"
     inkscape:persp3d-origin="0.5 : 0.33333333 : 1"
     inkscape:vp_z="1 : 0.5 : 1"
     inkscape:vp_y="0 : 1000 : 0"
     inkscape:vp_x="0 : 0.5 : 1"
     sodipodi:type="inkscape:persp3d" /><inkscape:perspective
     id="perspective4611"
     inkscape:persp3d-origin="0.5 : 0.33333333 : 1"
     inkscape:vp_z="1 : 0.5 : 1"
     inkscape:vp_y="0 : 1000 : 0"
     inkscape:vp_x="0 : 0.5 : 1"
     sodipodi:type="inkscape:persp3d" /><inkscape:perspective
     id="perspective4641"
     inkscape:persp3d-origin="0.5 : 0.33333333 : 1"
     inkscape:vp_z="1 : 0.5 : 1"
     inkscape:vp_y="0 : 1000 : 0"
     inkscape:vp_x="0 : 0.5 : 1"
     sodipodi:type="inkscape:persp3d" /><inkscape:perspective
     id="perspective4688"
     inkscape:persp3d-origin="0.5 : 0.33333333 : 1"
     inkscape:vp_z="1 : 0.5 : 1"
     inkscape:vp_y="0 : 1000 : 0"
     inkscape:vp_x="0 : 0.5 : 1"
     sodipodi:type="inkscape:persp3d" /><inkscape:perspective
     id="perspective3820"
     inkscape:persp3d-origin="0.5 : 0.33333333 : 1"
     inkscape:vp_z="1 : 0.5 : 1"
     inkscape:vp_y="0 : 1000 : 0"
     inkscape:vp_x="0 : 0.5 : 1"
     sodipodi:type="inkscape:persp3d" /><inkscape:perspective
     id="perspective4027"
     inkscape:persp3d-origin="0.5 : 0.33333333 : 1"
     inkscape:vp_z="1 : 0.5 : 1"
     inkscape:vp_y="0 : 1000 : 0"
     inkscape:vp_x="0 : 0.5 : 1"
     sodipodi:type="inkscape:persp3d" /><inkscape:perspective
     id="perspective4283"
     inkscape:persp3d-origin="0.5 : 0.33333333 : 1"
     inkscape:vp_z="1 : 0.5 : 1"
     inkscape:vp_y="0 : 1000 : 0"
     inkscape:vp_x="0 : 0.5 : 1"
     sodipodi:type="inkscape:persp3d" /><inkscape:perspective
     id="perspective3061"
     inkscape:persp3d-origin="0.5 : 0.33333333 : 1"
     inkscape:vp_z="1 : 0.5 : 1"
     inkscape:vp_y="0 : 1000 : 0"
     inkscape:vp_x="0 : 0.5 : 1"
     sodipodi:type="inkscape:persp3d" /><inkscape:perspective
     id="perspective3083"
     inkscape:persp3d-origin="0.5 : 0.33333333 : 1"
     inkscape:vp_z="1 : 0.5 : 1"
     inkscape:vp_y="0 : 1000 : 0"
     inkscape:vp_x="0 : 0.5 : 1"
     sodipodi:type="inkscape:persp3d" /><inkscape:perspective
     id="perspective3897"
     inkscape:persp3d-origin="0.5 : 0.33333333 : 1"
     inkscape:vp_z="1 : 0.5 : 1"
     inkscape:vp_y="0 : 1000 : 0"
     inkscape:vp_x="0 : 0.5 : 1"
     sodipodi:type="inkscape:persp3d" /><inkscape:perspective
     id="perspective4062"
     inkscape:persp3d-origin="0.5 : 0.33333333 : 1"
     inkscape:vp_z="1 : 0.5 : 1"
     inkscape:vp_y="0 : 1000 : 0"
     inkscape:vp_x="0 : 0.5 : 1"
     sodipodi:type="inkscape:persp3d" /><inkscape:perspective
     id="perspective4098"
     inkscape:persp3d-origin="0.5 : 0.33333333 : 1"
     inkscape:vp_z="1 : 0.5 : 1"
     inkscape:vp_y="0 : 1000 : 0"
     inkscape:vp_x="0 : 0.5 : 1"
     sodipodi:type="inkscape:persp3d" /><inkscape:perspective
     id="perspective4417"
     inkscape:persp3d-origin="0.5 : 0.33333333 : 1"
     inkscape:vp_z="1 : 0.5 : 1"
     inkscape:vp_y="0 : 1000 : 0"
     inkscape:vp_x="0 : 0.5 : 1"
     sodipodi:type="inkscape:persp3d" /><inkscape:perspective
     id="perspective4439"
     inkscape:persp3d-origin="0.5 : 0.33333333 : 1"
     inkscape:vp_z="1 : 0.5 : 1"
     inkscape:vp_y="0 : 1000 : 0"
     inkscape:vp_x="0 : 0.5 : 1"
     sodipodi:type="inkscape:persp3d" /></defs><sodipodi:namedview
   pagecolor="#ffffff"
   bordercolor="#666666"
   borderopacity="1"
   objecttolerance="10"
   gridtolerance="10"
   guidetolerance="10"
   inkscape:pageopacity="0"
   inkscape:pageshadow="2"
   inkscape:window-width="1280"
   inkscape:window-height="745"
   id="namedview2908"
   showgrid="false"
   inkscape:zoom="2.2309218"
   inkscape:cx="45.088804"
   inkscape:cy="88.374475"
   inkscape:window-x="-2"
   inkscape:window-y="-3"
   inkscape:window-maximized="1"
   inkscape:current-layer="g3927"
   inkscape:object-nodes="false"
   inkscape:snap-bbox="false"
   inkscape:snap-midpoints="false" />










<g
   inkscape:groupmode="layer"
   id="layer13"
   inkscape:label="copyleft"
   style="display:inline"><g
     id="g3400"
     transform="matrix(0.06012571,0,0,0.06012571,433.52089,737.54075)"><path
       style="fill:none;stroke:#000000;stroke-width:20"
       d="m 186,98 c 0,48.60106 -39.39894,88 -88,88 -48.601058,0 -88,-39.39894 -88,-88 0,-48.601058 39.398942,-88 88,-88 48.60106,0 88,39.398942 88,88 z"
       id="circle3387" /><path
       id="path3389-8"
       style="fill:#000000"
       d="M 97.28125,43 C 71.21839,43 49.38119,61.152555 43.71875,85.5 L 70,85.5 C 74.741911,75.172905 85.17979,68 97.28125,68 c 16.55999,-2e-6 30,13.44 30,30 -1e-5,16.56 -13.44,30 -30,30 C 85.17978,128 74.741911,120.8271 70,110.5 l -26.28125,0 c 5.66243,24.34745 27.49963,42.5 53.5625,42.5 30.36,0 54.99999,-24.64 55,-55 0,-30.36 -24.64001,-55.000002 -55,-55 z"
       inkscape:connector-curvature="0" /></g></g><g
   inkscape:groupmode="layer"
   id="layer6"
   inkscape:label="rings"
   style="display:inline"><path
     id="green_b"
     d="m 276.096,654.765 c 0,-54.361 44.068,-98.436 98.437,-98.436 54.363,0 98.433,44.074 98.433,98.436 0,54.365 -44.069,98.435 -98.433,98.435 -54.369,-0.001 -98.437,-44.072 -98.437,-98.435"
     style="fill:#067655;display:inline;overflow:visible"
     inkscape:connector-curvature="0" /><path
     id="white_b"
     d="m 278.998,654.765 c 0,-52.759 42.771,-95.529 95.533,-95.529 52.761,0 95.533,42.771 95.533,95.529 0,52.76 -42.772,95.533 -95.533,95.533 -52.763,-0.002 -95.533,-42.774 -95.533,-95.533"
     style="fill:#ffffff;display:inline;overflow:visible"
     inkscape:connector-curvature="0" /><path
     id="mid"
     d="m 282.11,654.765 c 0,-51.041 41.377,-92.417 92.422,-92.417 51.042,0 92.42,41.376 92.42,92.417 0,51.043 -41.379,92.419 -92.42,92.419 -51.046,0 -92.422,-41.376 -92.422,-92.419"
     style="fill:#067655;display:inline;overflow:visible"
     inkscape:connector-curvature="0" /><path
     id="inner"
     d="m 317.402,654.375 c 0,-31.435 25.482,-56.917 56.914,-56.917 31.432,0 56.912,25.482 56.912,56.917 0,31.431 -25.48,56.909 -56.912,56.909 -31.432,0 -56.914,-25.478 -56.914,-56.909"
     style="fill:#ffffff;display:inline;overflow:visible"
     inkscape:connector-curvature="0" /></g><g
   inkscape:groupmode="layer"
   id="layer8"
   inkscape:label="stars"
   style="display:inline"><path
     style="fill:#ffffff;display:inline;overflow:visible"
     id="star-2"
     d="m 301.868,657.973 c 2.422,-0.012 4.75,0.08 7.251,0.022 l -5.569,4.656 c 0.536,1.96 1,4.213 1.68,6.842 l -5.521,-3.84 c -2.322,1.06 -3.72,2.361 -6.118,3.599 l 1.918,-6.603 c -1.823,-1.491 -3.86,-2.906 -5.583,-4.425 2.512,-0.065 4.712,0.035 7.141,-0.015 1.122,-2.097 1.621,-4.503 2.642,-6.602 l 2.159,6.366"
     inkscape:connector-curvature="0" /><path
     style="fill:#ffffff;display:inline;overflow:visible"
     id="star_1_-0"
     d="m 451.272,658.006 c 2.419,-0.01 4.581,0.055 7.247,0.025 l -5.563,4.657 c 0.541,1.956 1,4.21 1.677,6.842 l -5.518,-3.845 c -2.325,1.058 -3.721,2.361 -6.122,3.601 l 1.92,-6.599 c -1.819,-1.489 -3.861,-2.911 -5.575,-4.431 2.506,-0.064 4.706,0.037 7.134,-0.013 0.979,-2.185 1.681,-4.284 2.645,-6.602 l 2.155,6.365"
     inkscape:connector-curvature="0" /></g><g
   inkscape:groupmode="layer"
   id="layer15"
   inkscape:label="GNU LINUX"
   style="display:inline"><path
   style="font-size:36.78193665px;font-style:normal;font-variant:normal;font-weight:normal;font-stretch:normal;text-align:start;line-height:100%;writing-mode:lr-tb;text-anchor:start;fill:none;stroke:none;font-family:FreightSans BlackSC;-inkscape-font-specification:FreightSans BlackSC"
   d="m 36.534425,104.84343 c 0,-91.341588 126.746345,-89.845006 126.746345,2.52931"
   id="path2989"
   transform="translate(274.62,554.459)"
   sodipodi:nodetypes="cc"
   inkscape:connector-curvature="0" /><g
   style="font-size:36.78193665px;font-style:normal;font-variant:normal;font-weight:normal;font-stretch:normal;text-align:start;line-height:100%;writing-mode:lr-tb;text-anchor:start;fill:#ffffff;fill-opacity:1;stroke:none;font-family:FreightSans BlackSC;-inkscape-font-specification:FreightSans BlackSC"
   id="text2991"><path
     d="m 315.15375,626.79727 c 0.28573,1.39671 0.40861,2.92745 0.36864,4.59223 -0.0637,1.65848 -0.34306,3.41143 -0.83818,5.25888 -0.49512,1.84748 -1.19768,3.47434 -2.10767,4.88058 -0.92733,1.37623 -2.02254,2.47898 -3.28564,3.30825 -1.25675,0.80559 -2.67503,1.31402 -4.25485,1.52529 -1.6035,0.20494 -3.34083,0.0567 -5.21198,-0.4448 -1.84746,-0.49512 -3.41742,-1.22051 -4.70991,-2.17617 -1.31613,-0.962 -2.32878,-2.10923 -3.03794,-3.44168 -0.70278,-1.35613 -1.10841,-2.87379 -1.21692,-4.55301 -0.13214,-1.68554 0.0589,-3.48757 0.573,-5.40611 0.20314,-0.75791 0.44497,-1.51817 0.72548,-2.28077 0.2869,-0.78624 0.61797,-1.54796 0.99323,-2.28517 0.37528,-0.73716 0.77656,-1.4293 1.20383,-2.07641 0.4273,-0.64706 0.88291,-1.21039 1.36684,-1.69 l 5.17475,3.7097 c -0.95053,0.98923 -1.70756,1.96682 -2.2711,2.93278 -0.55716,0.94233 -0.9754,1.93456 -1.25471,2.9767 -0.2412,0.90006 -0.31491,1.74345 -0.22112,2.53017 0.0938,0.78675 0.32275,1.49547 0.68683,2.12615 0.3641,0.63071 0.86652,1.17154 1.50725,1.6225 0.61706,0.44463 1.35192,0.7812 2.20459,1.00971 1.9659,0.52686 3.58736,0.49176 4.86438,-0.10531 1.28337,-0.62074 2.18848,-1.91406 2.71534,-3.87997 0.12695,-0.47369 0.2279,-0.99245 0.30284,-1.55627 0.0749,-0.56379 0.089,-1.04238 0.0421,-1.43577 l -2.23828,-0.59985 -1.36158,5.08053 -5.36475,-1.43775 3.02784,-11.29796 11.61772,3.11353 0,0"
     style="line-height:100%;letter-spacing:-2.26399732;fill:#ffffff;font-family:FreightSans BlackSC;-inkscape-font-specification:FreightSans BlackSC"
     id="path3094" /><path
     d="m 307.94188,599.07151 3.95928,-5.4435 18.76968,13.65194 -4.52181,6.2169 -15.57649,-1.09591 10.53005,7.65893 -3.95928,5.4435 -18.5912,-13.52213 4.58671,-6.30613 15.36286,1.07697 -10.5598,-7.68057"
     style="line-height:100%;letter-spacing:-2.26399732;fill:#ffffff;font-family:FreightSans BlackSC;-inkscape-font-specification:FreightSans BlackSC"
     id="path3096" /><path
     d="m 345.51367,586.60849 c 0.90594,1.51539 1.46084,2.96923 1.6647,4.36151 0.2123,1.35869 0.12195,2.64118 -0.27105,3.84749 -0.37199,1.19374 -1.02558,2.29872 -1.96077,3.31492 -0.91418,1.00364 -2.04476,1.9081 -3.39174,2.71338 -1.30492,0.78013 -2.61371,1.36259 -3.92639,1.7474 -1.29165,0.37222 -2.54291,0.47747 -3.7538,0.31574 -1.22347,-0.18277 -2.375,-0.6514 -3.45458,-1.40588 -1.09216,-0.77552 -2.08493,-1.91045 -2.9783,-3.40478 l -7.15324,-11.96515 6.21935,-3.71817 6.70027,11.20746 c 0.7927,1.32596 1.61983,2.15994 2.48139,2.50193 0.86155,0.34202 1.82903,0.19216 2.90242,-0.44956 1.03129,-0.61654 1.60436,-1.33054 1.7192,-2.14201 0.13587,-0.82402 -0.21141,-1.93058 -1.04186,-3.31969 l -6.79463,-11.36531 6.18778,-3.6993 6.85125,11.46002 0,0"
     style="line-height:100%;letter-spacing:-2.26399732;fill:#ffffff;font-family:FreightSans BlackSC;-inkscape-font-specification:FreightSans BlackSC"
     id="path3098" /><path
     d="m 370.15048,591.30266 1.51325,-22.93885 7.23033,0.47698 -1.12344,17.0298 8.84522,0.58351 -0.38981,5.90905 -16.07555,-1.06049"
     style="line-height:100%;letter-spacing:-2.26399732;fill:#ffffff;font-family:FreightSans BlackSC;-inkscape-font-specification:FreightSans BlackSC"
     id="path3100" /><path
     d="m 387.44038,593.06296 6.13227,-22.15572 6.98349,1.93289 -6.13228,22.15572 -6.98348,-1.93289"
     style="line-height:100%;letter-spacing:-2.26399732;fill:#ffffff;font-family:FreightSans BlackSC;-inkscape-font-specification:FreightSans BlackSC"
     id="path3102" /><path
     d="m 422.2766,583.31654 5.77632,3.45567 -11.91545,19.91729 -6.59701,-3.94664 -0.304,-15.61205 -6.68474,11.17388 -5.77633,-3.45567 11.80215,-19.72789 6.69171,4.00329 0.30372,15.39757 6.70363,-11.20545"
     style="line-height:100%;letter-spacing:-2.26399732;fill:#ffffff;font-family:FreightSans BlackSC;-inkscape-font-specification:FreightSans BlackSC"
     id="path3104" /><path
     d="m 438.25118,619.20907 c -1.40732,1.06611 -2.79181,1.77656 -4.15348,2.13135 -1.32735,0.3595 -2.61204,0.40984 -3.85407,0.15101 -1.22724,-0.23931 -2.39702,-0.76823 -3.50933,-1.58678 -1.09753,-0.79902 -2.12012,-1.82399 -3.06778,-3.07492 -0.91805,-1.21185 -1.64005,-2.44915 -2.16599,-3.71192 -0.51115,-1.24324 -0.7525,-2.47551 -0.72406,-3.69681 0.048,-1.23612 0.38796,-2.43196 1.01995,-3.58753 0.65153,-1.17037 1.67117,-2.28121 3.05893,-3.33252 l 11.1118,-8.41792 4.37554,5.77579 -10.40815,7.88486 c -1.2314,0.93285 -1.96999,1.84616 -2.21579,2.73994 -0.24582,0.89376 0.009,1.83907 0.76404,2.83591 0.72554,0.95774 1.49789,1.44935 2.31705,1.47483 0.83394,0.045 1.89592,-0.42112 3.18596,-1.39839 l 10.55475,-7.99591 4.35333,5.74647 -10.6427,8.06254 0,0"
     style="line-height:100%;letter-spacing:-2.26399732;fill:#ffffff;font-family:FreightSans BlackSC;-inkscape-font-specification:FreightSans BlackSC"
     id="path3106" /><path
     d="m 432.92602,632.34837 -2.37066,-7.46728 13.32144,3.91351 8.65635,-10.65933 2.42631,7.64256 -5.16566,5.73062 7.56972,1.84183 2.39292,7.53739 -13.03152,-3.85119 -8.81271,11.0177 -2.43745,-7.67762 5.4272,-6.12237 -7.97594,-1.90582"
     style="line-height:100%;letter-spacing:-2.26399732;fill:#ffffff;font-family:FreightSans BlackSC;-inkscape-font-specification:FreightSans BlackSC"
     id="path3108" /></g>




</g><g
   inkscape:groupmode="layer"
   id="layer2"
   inkscape:label="/"><g
     transform="matrix(0.74247494,0.03573406,-0.0375202,0.90469027,308.83875,546.80061)"
     style="font-size:36.7820015px;font-style:normal;font-variant:normal;font-weight:normal;font-stretch:normal;text-align:start;line-height:125%;writing-mode:lr-tb;text-anchor:start;fill:#ffffff;fill-opacity:1;stroke:none;font-family:FreightSans BlackSC;-inkscape-font-specification:FreightSans BlackSC"
     id="flowRoot4380"><path
       d="m 67.145302,51.754184 -5.88512,0 8.938026,-33.140584 5.885121,0 -8.938027,33.140584"
       style=""
       id="path3091" /></g></g><g
   style="display:inline"
   inkscape:label="FREEDOM"
   id="g3883"
   inkscape:groupmode="layer"><path
   sodipodi:nodetypes="cc"
   id="path3885"
   d="m 290.70786,673.6608 c 16.44428,88.82603 149.44505,91.50215 166.74297,-3.18736"
   style="font-size:36.78193665px;font-style:normal;font-variant:normal;font-weight:normal;font-stretch:normal;text-align:start;line-height:100%;writing-mode:lr-tb;text-anchor:start;fill:none;stroke:none;font-family:FreightSans BlackSC;-inkscape-font-specification:FreightSans BlackSC"
   inkscape:export-xdpi="90"
   inkscape:export-ydpi="90"
   inkscape:connector-curvature="0" /><g
   transform="translate(1.3206868e-6,2.6101504e-6)"
   style="font-size:36.78193665px;font-style:normal;font-variant:normal;font-weight:normal;font-stretch:normal;text-align:start;line-height:100%;writing-mode:lr-tb;text-anchor:start;fill:#ffffff;fill-opacity:1;stroke:none;font-family:FreightSans BlackSC;-inkscape-font-specification:FreightSans BlackSC"
   id="text3887"><path
     d="m 314.90952,678.17903 7.72426,15.79412 -5.22065,2.55321 -4.58931,-9.38395 -2.97379,1.45435 3.58742,7.33535 -5.15457,2.52089 -3.58742,-7.33535 -7.3023,3.57126 -3.13495,-6.41016 20.65131,-10.09972"
     style="letter-spacing:6.10264063"
     id="path3076" /><path
     d="m 312.79453,716.68173 -5.2968,-4.94459 15.68715,-16.80458 7.60912,7.10314 c 2.34813,2.19202 3.65417,4.35048 3.91812,6.47538 0.29855,2.12371 -0.33861,4.02803 -1.91148,5.71297 -1.004,1.07549 -2.17645,1.79244 -3.51736,2.15085 -1.30629,0.35721 -2.73322,0.23279 -4.28079,-0.37326 l -1.85633,10.34338 -5.86144,-5.47168 1.75751,-7.91973 -1.6043,-1.24604 -4.6434,4.97416 m 9.90321,-7.15891 c 0.89027,0.66336 1.65629,0.99268 2.29808,0.98796 0.6764,-0.006 1.33254,-0.34944 1.96841,-1.03059 0.58564,-0.62737 0.82352,-1.27748 0.71365,-1.95033 -0.10991,-0.67284 -0.64882,-1.46106 -1.61674,-2.36464 l -1.45192,-1.35537 -3.76492,4.0331 1.85344,1.67987"
     style="letter-spacing:6.10264063"
     id="path3078" /><path
     d="m 330.97174,730.68184 8.87195,-21.20777 16.55903,6.92722 -2.17186,5.19166 -10.04399,-4.20175 -1.164,2.78246 7.94018,3.32165 -2.17185,5.19166 -7.94019,-3.32165 -1.19239,2.85032 10.044,4.20176 -2.17185,5.19166 -16.55903,-6.92722"
     style="letter-spacing:6.10264063"
     id="path3080" /><path
     d="m 357.1649,739.81663 1.95452,-22.90547 17.88459,1.52608 -0.47846,5.60726 -10.84804,-0.92565 -0.25643,3.00519 8.57581,0.73177 -0.47846,5.60726 -8.57581,-0.73177 -0.26269,3.0785 10.84803,0.92566 -0.47846,5.60726 -17.8846,-1.52609"
     style="letter-spacing:6.10264063"
     id="path3082" /><path
     d="m 403.95272,724.09962 c 0.42576,1.71343 0.52753,3.34313 0.30531,4.8891 -0.22817,1.5222 -0.7773,2.92201 -1.64739,4.19943 -0.85225,1.24774 -2.01947,2.34633 -3.50167,3.2958 -1.48815,0.92567 -3.2912,1.65167 -5.40917,2.17798 l -8.74559,2.17325 -5.54403,-22.31019 9.24534,-2.29744 c 2.02278,-0.50263 3.87265,-0.68438 5.5496,-0.54525 1.70072,0.13327 3.20776,0.55469 4.52112,1.26425 1.30742,0.68581 2.40335,1.63893 3.28779,2.85935 0.87848,1.19667 1.52471,2.62791 1.93869,4.29372 m -7.01465,1.97052 c -0.5145,-2.07037 -1.37195,-3.43648 -2.57235,-4.09835 -1.17663,-0.66774 -2.78823,-0.74733 -4.83481,-0.23878 l -1.74912,0.43465 2.86515,11.52991 2.10608,-0.52336 c 1.76101,-0.4376 3.01701,-1.22979 3.768,-2.37656 0.77476,-1.15267 0.91378,-2.7285 0.41705,-4.72751"
     style="letter-spacing:6.10264063"
     id="path3084" /><path
     d="m 427.83125,708.06014 c 1.09895,1.50513 1.83924,3.05959 2.22087,4.66338 0.36715,1.58403 0.40612,3.1344 0.11694,4.65112 -0.28388,1.48249 -0.87344,2.89973 -1.7687,4.25174 -0.87548,1.33756 -2.00635,2.51244 -3.39262,3.52464 -1.3863,1.01221 -2.82806,1.7613 -4.3253,2.24728 -1.51171,0.46618 -3.00236,0.62854 -4.47194,0.48708 -1.48405,-0.16126 -2.92455,-0.65794 -4.32152,-1.49003 -1.37716,-0.84654 -2.65861,-2.08177 -3.84433,-3.70572 -1.11342,-1.5249 -1.84648,-3.06945 -2.19919,-4.63367 -0.36715,-1.58399 -0.41603,-3.12713 -0.14664,-4.62943 0.28922,-1.51671 0.87878,-2.93396 1.7687,-4.25173 0.89527,-1.35199 2.03605,-2.5341 3.42233,-3.54633 1.38628,-1.01218 2.82805,-1.76127 4.3253,-2.24728 1.49724,-0.48596 2.98789,-0.64832 4.47194,-0.48708 1.46957,0.14149 2.89295,0.63549 4.27012,1.48201 1.39696,0.83211 2.6883,2.06012 3.87404,3.68402 m -5.79504,4.41346 c -1.11343,-1.52489 -2.36376,-2.50959 -3.75098,-2.9541 -1.40168,-0.46428 -2.77586,-0.20478 -4.12254,0.77848 -1.36647,0.99776 -2.02944,2.21052 -1.98889,3.63828 0.0261,1.40799 0.58139,2.85463 1.66589,4.33991 0.56394,0.77238 1.16639,1.41035 1.80735,1.91392 0.64095,0.50361 1.29606,0.86024 1.96531,1.0699 0.66925,0.20968 1.35532,0.25526 2.05821,0.13674 0.70288,-0.1185 1.39099,-0.42357 2.06433,-0.91522 1.34667,-0.98328 1.99973,-2.1888 1.95919,-3.6166 -0.0207,-1.44221 -0.57338,-2.90598 -1.65787,-4.39131"
     style="letter-spacing:6.10264063"
     id="path3086" /><path
     d="m 436.92003,682.65969 12.73824,11.41124 -3.73131,6.93074 -16.49196,-4.28369 14.86299,8.08535 -3.15593,5.86199 -19.85806,-11.61003 4.9344,-9.16543 16.15318,4.60259 -12.73572,-10.95037 4.88209,-9.06826 20.62525,10.18502 -3.22566,5.99153 -14.99751,-7.99068"
     style="letter-spacing:6.10264063"
     id="path3088" /></g>




</g><g
   style="display:inline"
   inkscape:label="Black TUX"
   id="g3927"
   inkscape:groupmode="layer"><path
     style="fill:#000000;fill-opacity:1;stroke:none;display:inline;overflow:visible"
     d="M 100.5,47.4375 C 97.16057,47.403 93.78401,47.67565 90.46875,48.28125 82.40105,49.75498 74.80022,53.08085 68.25,58 c -4.00188,3.00537 -7.50926,6.52891 -10.46875,10.4375 -0.49325,0.65143 -0.97549,1.29597 -1.4375,1.96875 -0.0581,0.0849 -0.12989,0.16473 -0.1875,0.25 -0.39999,0.58985 -0.78061,1.20724 -1.15625,1.8125 -0.26186,0.42193 -0.50015,0.85212 -0.75,1.28125 -0.24152,0.41693 -0.4884,0.82596 -0.71875,1.25 -0.31329,0.57359 -0.61431,1.16484 -0.90625,1.75 -0.20081,0.4025 -0.40317,0.81099 -0.59375,1.21875 -0.61453,1.32371 -1.18208,2.68213 -1.6875,4.0625 -0.29642,0.80956 -0.55511,1.60995 -0.8125,2.4375 -1.09233,3.51195 -1.81902,7.18506 -2.15625,10.96875 l 0.65625,-0.34375 c 1.72813,-0.81544 3.6416,-3.44291 4.28125,-5.90625 0.32644,-1.25714 0.34062,-1.70107 0.15625,-2.75 -0.32562,-1.85274 0.0604,-3.0322 1.125,-3.53125 0.27657,-0.12971 0.2961,-0.19611 0.25,-0.5625 -0.0276,-0.21969 -0.0634,-0.8917 -0.0625,-1.5 10e-4,-0.99906 0.0419,-1.13963 0.28125,-1.59375 0.50059,-0.94976 1.33287,-1.55257 2.53125,-1.84375 0.2713,-0.0659 0.94344,-0.1147 1.59375,-0.125 0.65031,-0.0103 1.27994,0.003 1.4375,0.0625 0.11062,0.0415 0.99159,0.64316 1.96875,1.34375 L 63.875,79.78125 65.75,80.125 c 4.05275,0.23707 5.72355,1.36672 7.1875,3.5 0.20903,0.30455 0.74438,1.27188 1.1875,2.15625 0.44312,0.88436 0.89703,1.6626 1,1.75 0.10309,0.0874 0.38668,0.28352 0.65625,0.4375 0.99003,0.56554 0.878885,2.595409 1.128367,3.325872 1.162969,3.405078 5.220299,4.050004 6.816957,2.053585 0.697578,-0.872232 0.515786,-4.905295 0.460926,-9.910707 -0.14368,-13.07839 4.5e-4,-15.64673 0.9375,-18.46875 0.33939,-1.02207 1.02594,-2.56057 1.5,-3.3125 1.40311,-2.22557 4.28333,-5.07174 6.625,-6.53125 2.37419,-1.47977 5.25149,-2.36082 8.25,-2.5625 5.49554,-0.36962 11.06105,1.78347 15.125,5.875 2.78343,2.80231 4.28404,5.40123 5.1875,8.9375 0.54015,2.11417 0.96483,5.75452 1.40625,12.21875 0.11514,1.68667 0.22845,3.43405 0.28125,3.875 0.0528,0.44095 0.0937,0.867 0.0937,0.9375 0,0.24982 0.25424,0.11797 0.8125,-0.4375 1.1715,-1.16559 3.06666,-2.23934 5.28125,-2.9375 0.66361,-0.20921 1.2767,-0.44755 1.375,-0.53125 0.0984,-0.0836 0.80767,-0.87811 1.5625,-1.78125 L 134,77.0625 l 0.75,-0.21875 c 2.20633,-0.68719 3.72292,-0.5878 4.78125,0.34375 0.77641,0.68344 1.16812,1.58822 1.3125,3.03125 0.0633,0.63258 0.0936,0.6993 0.34375,0.75 1.25357,0.25357 1.8901,1.26589 2.0625,3.3125 0.0717,0.85068 0.33219,1.62488 0.875,2.5625 1.50638,2.60207 4.2738,4.65625 6.28125,4.65625 0.28943,-2.1e-4 0.91738,-0.13184 1.6875,-0.3125 -0.54259,-3.15847 -1.36089,-6.2159 -2.4375,-9.15625 -0.29642,-0.80956 -0.63441,-1.61579 -0.96875,-2.40625 -0.23574,-0.55735 -0.46463,-1.10887 -0.71875,-1.65625 -0.0258,-0.055 -0.0678,-0.10134 -0.0937,-0.15625 -0.32329,-0.68424 -0.64791,-1.36208 -1,-2.03125 -0.13602,-0.25851 -0.266,-0.52508 -0.40625,-0.78125 -0.25265,-0.46509 -0.51518,-0.91848 -0.78125,-1.375 -0.41316,-0.70419 -0.83611,-1.4094 -1.28125,-2.09375 -4.00628,-6.15912 -9.30155,-11.47787 -15.5625,-15.5625 C 120.40743,50.46486 110.5183,47.54109 100.5,47.4375 z M 75.864106,95.42875 C 75.751761,94.656739 76.448358,93.686402 75.665,92.186608 75.51014,90.675038 75.53762,88.78643 74.0625,88.09375 72.42349,87.32406 72.5881,87.45416 72.625,86.75 c 0.11627,-2.22304 -1.39084,-3.80577 -4.5,-4.78125 -1.39237,-0.43689 -1.70346,-0.38094 -2.5625,-0.4375 L 64.21875,81.625 c -2.21694,-0.62562 -3.28403,-1.97357 -3.9375,-2.40625 -1.78304,-1.1806 -3.60694,-1.08056 -5,0.3125 l -0.5625,0.59375 0.0625,0.9375 c 0.10394,1.58243 0.87868,3.56717 2.53125,6.4375 1.82526,3.17029 3.84085,5.23808 5.6875,5.84375 0.83987,0.27565 1.93879,0.4516 2.4375,0.375 0.59069,-0.0907 1.6452,-0.43174 2.28125,-0.75 1.16247,-0.58171 2.94431,-2.16551 3.6875,-3.25 0.44534,-0.64987 0.59169,-0.703 1.1875,-0.5 0.74176,0.25273 1.47107,1.00717 1.6875,1.78125 0.3033,1.08473 0.236,1.70534 -0.4375,4.0625 -0.73845,2.5845 -1.20213,3.70378 -2.375,5.9375 -1.30734,2.48978 -1.61655,3.21945 -2.09375,4.65625 -0.39268,1.18232 -0.52631,1.71136 -1.03125,4.65625 -0.69293,4.04089 -1.12048,5.29034 -2.25,6.3125 -0.75174,0.68028 -2.14933,1.42199 -3.1875,1.6875 -1.42824,0.3653 -2.81292,0.16162 -4.5,-0.65625 -1.47973,-0.71732 -2.15799,-1.44903 -4.46875,-4.78125 -1.76504,-2.54534 -3.21934,-4.34334 -4.3125,-5.34375 -0.30291,-0.27721 -1.08647,-0.88732 -2.1875,-1.71875 1.26314,11.9428 6.50948,22.68549 14.375,30.90625 3.93276,4.11039 8.51535,7.60755 13.59375,10.28125 6.07412,7.12275 1.71517,-9.18107 1.4375,-9.46875 -0.4206,-0.86883 -0.4869,-5.32927 -0.125,-7.71875 0.17161,-1.13303 1.11086,-5.19166 1.5625,-6.71875 0.16356,-0.55302 0.57717,-1.59256 0.90625,-2.28125 0.32907,-0.68869 0.55865,-1.3034 0.53125,-1.375 -0.069,-0.17973 -1.62016,-0.16388 -4.21875,0.0312 -2.30354,0.17306 -2.65541,0.11964 -3.21875,-0.375 -0.18585,-0.16319 -0.41701,-0.51577 -0.53125,-0.78125 -0.20049,-0.46602 -0.632,-2.30855 -0.625,-2.6875 0.002,-0.10194 -0.578827,-7.37609 1.125,-9.3125 2.956844,-6.25102 3.444008,-9.227212 3.614106,-10.88375 l 0,5e-5 z M 103.28125,54.375 c -0.45303,-0.013 -0.89181,0.007 -1.34375,0.03125 -2.16934,0.11796 -4.33033,0.68892 -6.34375,1.6875 -2.46185,1.22101 -5.47247,3.93348 -7.09375,6.375 -0.57707,0.86901 -1.37694,2.53061 -1.71875,3.5625 -0.87858,2.65623 -1.01227,5.27136 -0.875,18.03125 L 86,93.125 c -0.987193,3.169597 -2.501896,2.354327 -4.320754,2.72737 0,0 -2.374751,0.319698 -3.880298,-1.02737 -2.060222,-0.633914 -2.138535,-2.764046 -2.138535,-2.764046 l -6.36609,19.534446 0.51086,5.52009 c 0.153145,1.6548 1.92759,4.61266 2.54789,4.93177 0.27547,0.14167 4.070418,0.72333 5.035708,0.67583 0.63594,-0.0314 0.389497,-2.16086 1.177087,-2.19526 1.09476,-0.0477 2.337332,-3.19333 2.434132,-3.30908 0.0696,-0.0833 0.49508,-0.85021 0.9375,-1.71875 0.78247,-1.53621 0.83739,-1.6201 1.75,-2.46875 1.05024,-0.97672 1.58496,-1.28741 3.375,-1.9375 1.31832,-0.47876 1.7021,-0.67897 1.75,-1 0.0342,-0.2294 -0.1104,-0.35684 -1.59375,-1.21875 -0.9384,-0.54526 -1.70018,-1.16754 -2,-1.65625 -0.29221,-0.47644 -0.41878,-3.15983 -0.1875,-4.0625 0.29979,-1.16998 2.63278,-5.69543 3.375,-6.5625 0.90198,-1.05379 1.57498,-0.96747 4.78125,0.5625 4.01036,1.91372 5.16112,1.94209 7.875,0.3125 1.97605,-1.18653 7.01173,-4.61007 8.03125,-5.46875 0.5673,-0.47778 0.6541,-0.67769 0.34375,-0.84375 -0.41819,-0.22384 -1.754,0.23595 -5.28125,1.8125 -3.84514,1.71856 -4.82288,2.09588 -6.0625,2.3125 -1.49199,0.26072 -2.81639,-0.28045 -5.28125,-2.125 -0.96008,-0.71848 -1.24804,-1.01969 -1.125,-1.21875 0.0858,-0.13873 0.4173,-0.0466 2.21875,0.53125 1.59226,0.51062 2.90337,0.76132 3.53125,0.65625 0.97313,-0.16302 4.54998,-1.55812 8.65625,-3.375 3.13083,-1.38526 3.98127,-1.89513 3.78125,-2.21875 -0.18879,-0.30545 -1.7949,0.15677 -5.4375,1.53125 -5.19271,1.95935 -6.15867,2.21875 -7.6875,2.21875 -1.2309,7.5e-4 -1.85447,-0.17389 -3.21875,-0.90625 -1.02485,-0.5501 -3.44364,-2.14112 -4.1875,-2.75 -0.71554,-0.58574 -0.9375,-0.94933 -0.9375,-1.59375 0,-0.82424 0.46225,-1.48901 1.5625,-2.28125 0.27619,-0.1988 0.29186,-0.23946 0.1875,-0.5 -0.0627,-0.15653 -0.34344,-0.86986 -0.625,-1.5625 -0.69358,-1.70638 -0.89765,-2.61718 -0.96875,-4.0625 -0.077,-1.56775 0.0512,-2.44717 0.5625,-3.46875 0.6066,-1.21194 1.42772,-1.84012 2.65625,-2.09375 0.63623,-0.13129 1.60336,-0.0745 2.0625,0.125 1.61426,0.7015 2.24139,2.16178 2.53125,5.9375 0.0677,0.88254 0.14215,1.4513 0.21875,1.5 0.067,0.0428 1.15853,0.0625 2.4375,0.0625 1.73941,0.001 2.3598,-0.031 2.4375,-0.125 0.0572,-0.0691 0.15725,-0.64887 0.21875,-1.3125 0.32644,-3.52285 0.63311,-4.50808 1.84375,-5.71875 0.69081,-0.69081 1.4154,-1.04421 2.4375,-1.1875 1.74889,-0.24531 3.00013,0.11561 4,1.15625 1.54621,1.60929 2.11853,4.56285 1.46875,7.59375 -0.10095,0.47092 -0.37212,1.40989 -0.625,2.09375 -0.25284,0.68389 -0.44195,1.3131 -0.40625,1.375 0.0358,0.0618 0.4219,0.53715 0.875,1.0625 0.45309,0.52536 0.9029,1.09167 1,1.28125 0.22575,0.44096 0.19704,0.88959 -0.28125,2.59375 -0.75946,2.70587 -0.4989,3.84963 1.8125,8.09375 0.40706,0.7474 1.05833,1.97579 1.46875,2.75 0.4104,0.77419 1.2044,2.03467 1.75,2.78125 1.7389,2.3794 2.67755,3.97537 4.75,8.15625 1.08963,2.19819 2.02335,4 2.09375,4 0.033,0 0.08,-0.0444 0.125,-0.0937 0.25129,0.53106 0.54109,1.11259 1,1.9375 1.02378,1.84033 2.53052,4.81792 2.9375,5.8125 1.31097,3.20385 1.6855,5.63923 1.6875,11.21875 5e-5,0.18229 -3.7e-4,0.26962 0,0.4375 l -0.0312,0.0937 0.0312,0.59375 c 0.0142,1.94856 0.0681,2.89503 0.28125,3.375 l 0.21875,2.9375 -0.65625,3.5 c 9.81819,-6.60281 17.29585,-16.42042 20.9375,-27.9375 -0.003,-0.002 0.003,-0.0284 0,-0.0312 0.0168,-0.0533 0.0459,-0.10291 0.0625,-0.15625 0.15788,-0.50595 0.29449,-1.01891 0.4375,-1.53125 1.12351,-4.04248 1.77649,-8.28736 1.90625,-12.65625 -0.86858,1.07966 -1.38878,1.78428 -1.75,2.375 -0.77757,1.27159 -1.70746,3.31028 -2.5,5.5 -1.57261,4.34501 -2.26256,5.54119 -3.84375,6.625 -1.49103,1.02212 -2.57019,1.36535 -4.0625,1.28125 -1.68647,-0.095 -3.11503,-0.60223 -4.03125,-1.46875 -0.93755,-0.88671 -1.40699,-1.72221 -3.09375,-5.46875 -1.61121,-3.57873 -2.18053,-4.46749 -5.125,-7.71875 -1.62137,-1.79031 -2.38367,-2.82031 -3.78125,-5.1875 -0.90228,-1.52827 -1.16818,-2.14006 -1.3125,-2.96875 -0.19448,-1.11687 0.0633,-1.93693 0.84375,-2.65625 0.66087,-0.60919 0.85742,-0.63512 1.4375,-0.15625 2.15554,1.7796 5.02895,2.77974 6.96875,2.4375 0.83408,-0.14717 2.10266,-0.7811 2.78125,-1.375 1.77385,-1.55241 3.09376,-4.48046 4.0625,-9.0625 0.39926,-1.88849 0.47779,-3.38393 0.25,-4.5 -0.18766,-0.91931 -0.28806,-1.02565 -1.28125,-1.5 -0.58256,-0.2782 -0.72461,-0.3125 -1.53125,-0.3125 -0.80103,0.001 -0.99778,0.0469 -1.53125,0.3125 -1.06076,0.52821 -2.43686,2.18468 -3,3.5625 -0.12046,0.29469 -0.2643,0.54955 -0.3125,0.59375 -0.0482,0.044 -0.65248,0.19263 -1.34375,0.3125 -1.44957,0.25136 -2.03418,0.4233 -2.875,0.84375 -1.68742,0.84379 -3.222,2.17654 -3.78125,3.3125 -0.44374,0.90138 -0.48042,1.65101 -0.1875,2.71875 0.21024,0.76651 0.20595,0.81058 0.0312,0.9375 -1.55766,1.13143 -2.21162,1.88646 -2.4375,2.75 -0.16405,0.62714 -0.0507,1.7181 0.25,2.375 0.0132,0.0289 0.24713,0.405132 0.28125,0.46875 -1.06171,-0.679296 -2.05429,-0.861011 -2.125,-1 -0.11452,-0.22507 -0.40106,-0.5393 -0.625,-0.6875 -0.61799,-0.409 -1.43755,-1.27155 -1.78125,-1.875 -0.61645,-1.08243 -0.93792,-2.43049 -0.59375,-2.5625 0.0929,-0.0357 0.42793,0.16981 0.875,0.53125 0.72496,0.58608 2.51657,1.65625 2.78125,1.65625 0.0764,0 0.39632,-0.24089 0.6875,-0.53125 l 0.53125,-0.53125 0.375,-1.6875 0.375,-1.6875 -0.1875,-0.875 c -0.25013,-1.37015 -0.41344,-3.29937 -0.6875,-7.28125 -0.51091,-7.42353 -0.95083,-10.39571 -1.84375,-12.875 -1.23097,-3.41804 -3.92379,-6.79332 -7.21875,-9 -2.85843,-1.91429 -6.04754,-2.93995 -9.21875,-3.03125 l 5e-5,-5e-5 z m 7.3125,5.5625 c 0.10027,-0.005 0.20408,-5e-5 0.3125,0.03125 0.64852,0.18754 2.10525,1.38665 2.40625,1.96875 0.21879,0.42304 0.0358,0.53031 -0.96875,0.65625 -0.85558,0.10727 -1.11696,0.2171 -2.15625,0.84375 -0.32387,0.19533 -0.69209,0.37489 -0.8125,0.375 -0.26896,2.6e-4 -0.56695,-0.27725 -0.46875,-0.4375 0.0396,-0.0647 0.16041,-0.25878 0.28125,-0.4375 0.1308,-0.19336 0.30503,-0.69539 0.40625,-1.25 0.0936,-0.51255 0.2303,-1.07536 0.3125,-1.25 0.1412,-0.30003 0.3867,-0.48592 0.6875,-0.5 z m -4.3125,15.6875 c -1.43852,0.22766 -2.2423,1.45754 -2.34375,3.53125 -0.0483,0.98654 -0.0522,0.99047 0.21875,1.3125 0.32104,0.38155 1.08248,0.79911 2.5,1.34375 1.31352,0.50468 1.64893,0.48764 1.96875,-0.09375 0.3331,-0.60561 0.64955,-2.22099 0.59375,-3.03125 -0.11145,-1.61734 -1.69501,-3.25915 -2.9375,-3.0625 z M 92.25,76.09375 c -0.73717,-0.0263 -1.48337,0.46756 -1.90625,1.5 -0.13173,0.32142 -0.15625,0.70176 -0.15625,1.4375 2.2e-4,0.91594 0.029,1.0609 0.3125,1.65625 0.17115,0.35949 0.51882,0.89717 0.78125,1.1875 0.26241,0.29037 0.5429,0.53125 0.625,0.53125 0.16782,0 1.19915,-0.73264 1.78125,-1.28125 0.6781,-0.63901 0.77525,-0.92482 0.78125,-1.90625 0.004,-0.74059 -0.0189,-0.98871 -0.25,-1.5 -0.48127,-1.06469 -1.23158,-1.59868 -1.96875,-1.625 z m 14.03125,0.21875 c 0.46172,-0.0366 1.309,0.51279 1.6875,1.125 0.25062,0.40533 0.3125,0.59158 0.3125,1.09375 2.3e-4,0.4919 -0.0502,0.5977 -0.1875,0.625 -0.12638,0.0251 -0.26229,-0.16631 -0.53125,-0.75 -0.27635,-0.59973 -0.49437,-0.89808 -0.96875,-1.34375 -0.49195,-0.46214 -0.58502,-0.6155 -0.46875,-0.6875 0.048,-0.0296 0.0903,-0.0573 0.15625,-0.0625 z m -14,0.78125 c 0.35828,0 0.91361,1.15565 1.03125,2.15625 0.0533,0.45261 0.03075,0.53125 -0.09375,0.53125 -0.0984,0 -0.25855,-0.27575 -0.4375,-0.78125 -0.1517,-0.42857 -0.36231,-0.95181 -0.5,-1.1875 -0.25512,-0.43771 -0.26231,-0.71875 0,-0.71875 z M 100.625,81.375 c -0.17284,-0.004 -0.3278,0.01315 -0.46875,0.03125 -0.18793,0.0243 -0.32194,0.0923 -0.375,0.15625 -0.11805,0.14217 -0.10353,0.17774 0.0625,0.34375 0.10638,0.10636 0.44614,0.2984 0.75,0.40625 0.71517,0.25313 0.94142,0.24603 1.1875,0 0.23801,-0.23795 0.2559,-0.39162 0.0625,-0.65625 -0.11324,-0.15496 -0.70024,-0.2696 -1.21875,-0.28125 z m -5.21875,0.09375 c -1.141,0.0173 -1.93352,0.79238 -1.40625,1.375 0.32308,0.35697 0.8258,0.14123 1.15625,-0.5 0.0684,-0.13272 0.26152,-0.27945 0.5,-0.34375 0.67651,-0.18216 0.51223,-0.54295 -0.25,-0.53125 z m 21.25,27.09375 c -2.29588,0.003 -6.68758,0.85531 -6.875,1.34375 -0.0972,0.25338 0.33477,0.402 2.875,1.09375 4.34095,1.18216 5.56792,1.78418 8.03125,3.9375 0.62454,0.54591 1.37968,1.20246 1.6875,1.4375 0.54543,0.41638 1.00795,0.53455 1.03125,0.28125 0.0307,-0.33298 -0.0624,-0.58528 -0.53125,-1.46875 -1.11997,-2.11024 -3.93963,-5.87053 -4.84375,-6.4375 -0.25945,-0.16266 -0.51117,-0.1875 -1.375,-0.1875 z m -21.0625,0.46875 c -0.0915,0.008 -0.125,0.038 -0.125,0.125 0,0.0413 0.22622,0.23653 0.5,0.4375 0.27378,0.20099 0.64277,0.60124 0.84375,0.875 0.20098,0.27381 0.41445,0.5 0.46875,0.5 0.1507,0 0.45693,-0.2031 0.96875,-0.59375 0.25562,-0.19516 0.78647,-0.48912 1.1875,-0.6875 0.40102,-0.19844 0.75,-0.42555 0.75,-0.46875 0,-0.12165 -0.70842,-0.0721 -1.8125,0.0937 -1.03701,0.15576 -1.27788,0.14197 -2.34375,-0.1875 -0.22113,-0.0683 -0.34595,-0.10155 -0.4375,-0.0937 z m -0.8125,15.75 c -0.0444,0.015 -0.0931,0.0895 -0.15625,0.1875 -0.32213,0.49981 -0.64724,2.23786 -0.9375,5.0625 -0.25046,2.43795 -0.25096,6.74199 0,8.125 0.19447,1.07192 0.46416,1.95519 0.71875,2.34375 0.17664,0.26959 0.4137,0.28747 0.5,0.0625 0.0318,-0.0827 -0.026,-0.9593 -0.15625,-1.96875 -0.32482,-2.51392 -0.35067,-6.48533 -0.03125,-9.59375 0.34755,-3.38261 0.40232,-4.00387 0.21875,-4.15625 -0.0657,-0.0545 -0.11189,-0.0775 -0.15625,-0.0625 z m 30.40625,20.65625 c -0.0432,0.0432 -0.18146,0.41924 -0.3125,0.84375 -0.10043,0.32562 -0.14189,0.51109 -0.15625,0.625 0.75747,-0.40191 1.51497,-0.81289 2.25,-1.25 -0.0889,-0.006 -0.47866,-0.0803 -0.90625,-0.15625 -0.44195,-0.0786 -0.8318,-0.1057 -0.875,-0.0625 z"
     transform="translate(274.62,554.459)"
     id="path3266-5"
     sodipodi:nodetypes="cssssssssssssccssssssssscccssssssssssssssssssscccsssssscssssssssscccsssccscccsssssssssssssssscsccssssssssccccssscccccccssssssssssssssssssssssssssssssssssssssssssssssssssssssscssscccccccssscssssssssssssssssssssssssssscsssssscccccsssccscsssssssccscsssccscssssssccscssssccscssccscssssccscsccscsssssccscsssssssccscssssssccsccscsc"
     inkscape:connector-curvature="0" /></g></svg>